<svg width="1500" height="500" viewBox="0 0 1500 500" fill="none" xmlns="http://www.w3.org/2000/svg">
<g id="Twitter header - 1">
<path id="CV" d="M332.698 322.3C338.765 317.867 344.248 312.5 349.148 306.2C354.048 299.667 358.131 296.4 361.398 296.4C364.898 296.4 366.648 301.533 366.648 311.8C366.648 321.833 363.731 331.4 357.898 340.5C352.298 349.367 344.831 356.833 335.498 362.9C316.365 375.5 293.731 381.8 267.598 381.8C235.865 381.8 211.248 373.867 193.748 358C176.248 342.133 167.498 320.083 167.498 291.85C167.498 257.083 175.898 224.067 192.698 192.8C198.298 182.533 204.598 173.083 211.598 164.45C206.231 158.15 201.915 151.617 198.648 144.85C195.615 137.85 194.098 132.6 194.098 129.1C194.098 122.8 196.431 119.65 201.098 119.65C204.365 119.883 208.098 122.1 212.298 126.3L223.148 136.8C225.948 139.6 228.865 141.933 231.898 143.8C254.998 124.2 279.848 114.4 306.448 114.4C333.281 114.4 350.665 121.867 358.598 136.8C361.398 142.4 362.798 149.283 362.798 157.45C362.798 169.817 357.431 180.2 346.698 188.6C335.965 197 321.498 201.2 303.298 201.2C285.331 201.2 266.665 197.467 247.298 190C230.731 218.233 222.448 247.75 222.448 278.55C222.448 321.25 239.481 342.6 273.548 342.6C294.548 342.6 314.265 335.833 332.698 322.3ZM264.098 168.3C275.998 172.267 288.948 174.25 302.948 174.25C316.948 174.25 323.948 170.4 323.948 162.7C323.948 153.6 318.231 149.05 306.798 149.05C291.165 149.05 276.931 155.467 264.098 168.3ZM403.729 161.3C401.162 163.4 398.479 165.383 395.679 167.25C392.879 169.117 389.612 170.05 385.879 170.05C382.379 170.05 380.629 166.9 380.629 160.6C380.629 147.767 386.579 137.267 398.479 129.1C409.912 120.7 423.562 116.5 439.429 116.5C455.296 116.5 467.196 123.033 475.129 136.1C481.196 145.667 484.229 156.517 484.229 168.65C484.229 180.55 482.946 192.217 480.379 203.65C477.812 214.85 475.012 226.4 471.979 238.3C469.179 250.2 466.496 262.333 463.929 274.7C461.362 286.833 460.079 296.867 460.079 304.8C460.079 312.5 460.429 317.633 461.129 320.2C464.396 330.467 473.262 335.6 487.729 335.6C498.696 335.6 508.962 332.45 518.529 326.15C544.896 308.883 561.696 274.7 568.929 223.6C550.029 222.433 535.446 216.483 525.179 205.75C515.146 194.783 510.129 180.083 510.129 161.65C510.129 148.35 514.446 137.15 523.079 128.05C531.712 118.95 543.496 114.4 558.429 114.4C573.362 114.167 584.562 119.3 592.029 129.8C599.496 140.3 603.229 154.533 603.229 172.5V180.55C603.229 183.35 603.112 186.033 602.879 188.6C606.846 186.733 610.229 184.867 613.029 183C615.829 180.9 618.629 179.85 621.429 179.85C626.096 179.85 628.429 181.833 628.429 185.8C628.429 193.5 625.979 200.267 621.079 206.1C616.412 211.7 609.996 216.017 601.829 219.05C599.496 249.15 595.646 272.133 590.279 288C585.146 303.867 579.546 317.05 573.479 327.55C567.646 338.05 560.062 347.267 550.729 355.2C531.129 371.767 505.812 380.05 474.779 380.05C454.012 380.05 437.446 374.917 425.079 364.65C412.946 354.15 406.879 337.7 406.879 315.3C406.879 309.933 409.796 295.817 415.629 272.95C421.696 249.85 426.479 230.95 429.979 216.25C433.479 201.317 435.229 189.533 435.229 180.9C435.229 162 430.446 152.55 420.879 152.55C417.612 152.55 414.579 153.483 411.779 155.35C409.212 157.217 406.529 159.2 403.729 161.3ZM572.079 187.55C572.546 181.017 572.779 174.367 572.779 167.6C572.779 152.433 569.279 144.85 562.279 144.85C557.379 144.617 554.929 148.467 554.929 156.4C554.929 170.867 560.646 181.25 572.079 187.55Z" fill="#FFA857"/>
<g id="Mate">
<mask id="path-2-outside-1_4_6" maskUnits="userSpaceOnUse" x="571" y="96" width="820" height="282" fill="black">
<rect fill="white" x="571" y="96" width="820" height="282"/>
<path d="M926.451 281.76C930.305 281.76 932.231 286.973 932.231 297.4C932.231 303.067 929.851 309.98 925.091 318.14C920.331 326.073 914.098 333.44 906.391 340.24C898.911 346.813 890.525 352.253 881.231 356.56C871.938 360.867 862.078 363.02 851.651 363.02C841.451 363.02 833.405 359.733 827.511 353.16C821.845 346.36 819.011 338.88 819.011 330.72C819.011 322.333 820.371 312.927 823.091 302.5C825.811 292.073 828.758 281.193 831.931 269.86C840.545 239.713 844.965 218.52 845.191 206.28C845.191 201.067 844.511 197.1 843.151 194.38C841.791 191.433 839.185 189.96 835.331 189.96C828.531 189.96 821.278 194.04 813.571 202.2C805.865 210.36 798.611 220.787 791.811 233.48C776.171 262.493 767.898 290.827 766.991 318.48C767.445 321.653 767.898 324.827 768.351 328C768.805 331.173 769.031 334.573 769.031 338.2C769.031 345.453 765.405 352.14 758.151 358.26C751.125 364.153 743.191 367.1 734.351 367.1C729.138 367.1 725.285 364.607 722.791 359.62C720.298 354.407 719.051 348.06 719.051 340.58C719.051 333.1 720.751 322.9 724.151 309.98C727.551 297.06 731.291 283.347 735.371 268.84C746.251 230.533 751.805 201.973 752.031 183.16C752.031 173.64 750.785 166.16 748.291 160.72C746.025 155.28 741.491 152.56 734.691 152.56C722.451 152.56 710.325 161.287 698.311 178.74C686.298 196.193 675.531 223.28 666.011 260C663.518 269.52 661.591 277.793 660.231 284.82L659.891 291.28C664.198 312.133 666.351 325.733 666.351 332.08C666.351 345.227 661.705 354.067 652.411 358.6C648.105 360.64 643.911 362.567 639.831 364.38C635.978 366.193 631.785 367.1 627.251 367.1C615.918 367.1 610.251 356.333 610.251 334.8C610.251 313.04 616.258 270.653 628.271 207.64C632.578 184.973 634.731 172.28 634.731 169.56C634.731 151.2 630.085 142.02 620.791 142.02C617.618 142.02 614.671 142.927 611.951 144.74C609.458 146.553 606.851 148.48 604.131 150.52C601.638 152.56 599.031 154.487 596.311 156.3C593.591 158.113 590.418 159.02 586.791 159.02C583.391 159.02 581.691 155.96 581.691 149.84C581.691 137.373 587.471 127.173 599.031 119.24C610.138 111.08 623.625 107 639.491 107C659.891 107 671.905 116.52 675.531 135.56C676.438 141.227 677.118 147.233 677.571 153.58C694.345 122.073 715.538 106.32 741.151 106.32C769.031 106.32 785.011 119.693 789.091 146.44C790.451 154.147 791.018 162.42 790.791 171.26V173.98C805.525 153.58 822.978 143.38 843.151 143.38C871.711 143.38 885.991 160.607 885.991 195.06C885.991 210.02 883.611 227.587 878.851 247.76C874.318 267.707 870.918 282.1 868.651 290.94C866.611 299.553 865.591 306.24 865.591 311C865.591 319.613 868.538 323.92 874.431 323.92C880.551 323.92 894.945 312.133 917.611 288.56C921.691 284.027 924.638 281.76 926.451 281.76ZM1124.05 281.76C1128.13 281.76 1130.17 286.973 1130.17 297.4C1130.17 303.067 1127.79 309.98 1123.03 318.14C1118.27 326.073 1112.04 333.44 1104.33 340.24C1096.85 346.813 1088.46 352.253 1079.17 356.56C1069.88 360.867 1060.81 363.02 1051.97 363.02C1039.96 363.02 1031.91 352.48 1027.83 331.4C1021.94 341.147 1014.23 349.193 1004.71 355.54C995.19 361.66 982.383 364.72 966.29 364.72C950.423 364.72 937.617 359.733 927.87 349.76C918.123 339.787 913.363 327.66 913.59 313.38C913.59 274.847 926.397 244.473 952.01 222.26C962.89 212.967 972.977 206.847 982.27 203.9C991.79 200.953 1001.76 199.48 1012.19 199.48C1022.62 199.48 1031.12 201.293 1037.69 204.92C1040.86 198.347 1044.49 195.06 1048.57 195.06C1056.5 195.06 1063.98 198.573 1071.01 205.6C1078.26 212.4 1081.89 218.86 1081.89 224.98C1078.72 232.46 1074.07 241.413 1067.95 251.84C1066.14 262.267 1065.23 276.887 1065.23 295.7C1065.23 314.513 1067.61 323.92 1072.37 323.92C1078.26 323.92 1092.54 312.133 1115.21 288.56C1119.29 284.027 1122.24 281.76 1124.05 281.76ZM963.57 302.16C963.57 319.613 970.03 328.34 982.95 328.34C996.777 328.113 1008.22 320.747 1017.29 306.24C1020.46 301.253 1023.07 295.133 1025.11 287.88C1025.11 262.493 1027.38 240.733 1031.91 222.6C1013.55 226.227 997.57 235.067 983.97 249.12C970.37 263.173 963.57 280.853 963.57 302.16ZM1128.14 343.64C1125.65 337.52 1123.83 330.493 1122.7 322.56C1121.57 314.4 1121 303.067 1121 288.56C1121 274.053 1123.72 254.447 1129.16 229.74H1113.86C1111.14 229.74 1109.78 228.607 1109.78 226.34C1109.78 220.9 1110.23 216.48 1111.14 213.08C1112.27 209.453 1114.77 205.373 1118.62 200.84H1126.78C1129.95 200.84 1133.35 200.727 1136.98 200.5C1147.86 165.593 1158.97 148.14 1170.3 148.14C1179.37 148.367 1185.71 154.147 1189.34 165.48C1190.25 168.653 1191.27 172.053 1192.4 175.68L1178.46 200.16C1194.33 200.613 1204.3 200.84 1208.38 200.84C1212.69 200.84 1214.95 201.293 1215.18 202.2C1215.63 202.88 1215.86 204.013 1215.86 205.6C1215.86 209.68 1214.84 214.78 1212.8 220.9C1210.99 227.02 1208.83 229.967 1206.34 229.74L1172.34 228.04C1167.58 255.693 1165.2 278.587 1165.2 296.72C1165.2 314.853 1167.81 323.92 1173.02 323.92C1177.33 323.92 1185.15 320.407 1196.48 313.38C1207.81 306.127 1215.97 299.213 1220.96 292.64C1225.95 286.067 1230.03 282.78 1233.2 282.78C1236.37 282.78 1237.96 286.633 1237.96 294.34C1237.96 302.047 1235.24 309.98 1229.8 318.14C1224.36 326.073 1217.45 333.44 1209.06 340.24C1200.9 346.813 1191.72 352.253 1181.52 356.56C1171.55 360.867 1162.82 363.02 1155.34 363.02C1147.86 363.02 1142.08 361.32 1138 357.92C1134.15 354.293 1130.86 349.533 1128.14 343.64ZM1300.31 324.94C1317.99 324.94 1335.1 317.913 1351.65 303.86C1357.77 298.647 1362.76 293.887 1366.61 289.58C1370.46 285.047 1373.41 282.78 1375.45 282.78C1378.62 282.78 1380.21 285.953 1380.21 292.3C1380.21 298.647 1378.51 305.787 1375.11 313.72C1371.71 321.427 1366.04 329.02 1358.11 336.5C1338.62 354.86 1311.87 364.04 1277.87 364.04C1250.9 364.04 1232.54 354.293 1222.79 334.8C1219.39 328 1217.69 318.253 1217.69 305.56C1217.69 292.867 1220.18 279.72 1225.17 266.12C1230.16 252.293 1236.73 240.393 1244.89 230.42C1253.28 220.447 1262.91 212.74 1273.79 207.3C1284.67 201.633 1296.23 198.8 1308.47 198.8C1320.94 198.8 1330.46 201.86 1337.03 207.98C1343.83 214.1 1347.23 222.033 1347.23 231.78C1347.23 241.527 1344.74 249.573 1339.75 255.92C1334.99 262.04 1328.76 267.253 1321.05 271.56C1313.34 275.64 1304.73 279.38 1295.21 282.78C1285.92 285.953 1276.74 289.58 1267.67 293.66V302.16C1267.9 310.32 1271.3 316.1 1277.87 319.5C1284.44 322.9 1291.92 324.713 1300.31 324.94ZM1294.53 229.06C1282.74 229.06 1274.58 242.773 1270.05 270.2C1274.81 267.027 1279.23 264.193 1283.31 261.7C1287.62 259.207 1291.36 256.827 1294.53 254.56C1301.33 249.573 1304.84 243.907 1305.07 237.56C1305.07 231.893 1301.56 229.06 1294.53 229.06Z"/>
</mask>
<path d="M925.091 318.14L933.666 323.285L933.698 323.232L933.729 323.179L925.091 318.14ZM906.391 340.24L912.993 347.752L913 347.745L913.008 347.738L906.391 340.24ZM881.231 356.56L877.027 347.487L881.231 356.56ZM827.511 353.16L819.829 359.562L819.945 359.701L820.066 359.835L827.511 353.16ZM831.931 269.86L822.316 267.113L822.309 267.138L822.302 267.164L831.931 269.86ZM845.191 206.28L855.19 206.465L855.191 206.373V206.28H845.191ZM843.151 194.38L834.072 198.571L834.137 198.712L834.207 198.852L843.151 194.38ZM813.571 202.2L820.842 209.066L813.571 202.2ZM791.811 233.48L800.614 238.225L800.62 238.214L800.626 238.202L791.811 233.48ZM766.991 318.48L756.997 318.152L756.968 319.027L757.092 319.894L766.991 318.48ZM768.351 328L758.452 329.414L768.351 328ZM758.151 358.26L764.578 365.922L764.589 365.912L764.6 365.903L758.151 358.26ZM722.791 359.62L713.77 363.935L713.808 364.014L713.847 364.092L722.791 359.62ZM724.151 309.98L733.822 312.525L724.151 309.98ZM735.371 268.84L725.752 266.108L725.748 266.12L725.745 266.133L735.371 268.84ZM752.031 183.16L762.031 183.28L762.031 183.22V183.16H752.031ZM748.291 160.72L739.061 164.566L739.128 164.728L739.201 164.887L748.291 160.72ZM698.311 178.74L690.074 173.07L698.311 178.74ZM666.011 260L675.685 262.534L675.688 262.522L675.691 262.51L666.011 260ZM660.231 284.82L650.414 282.92L650.282 283.601L650.245 284.294L660.231 284.82ZM659.891 291.28L649.905 290.754L649.838 292.041L650.098 293.303L659.891 291.28ZM652.411 358.6L656.692 367.637L656.744 367.613L656.796 367.588L652.411 358.6ZM639.831 364.38L635.77 355.242L635.671 355.286L635.573 355.332L639.831 364.38ZM628.271 207.64L638.094 209.513L638.096 209.507L628.271 207.64ZM611.951 144.74L606.404 136.419L606.235 136.533L606.07 136.653L611.951 144.74ZM604.131 150.52L598.131 142.52L597.962 142.647L597.799 142.78L604.131 150.52ZM596.311 156.3L590.764 147.979H590.764L596.311 156.3ZM599.031 119.24L604.69 127.485L604.823 127.394L604.952 127.299L599.031 119.24ZM675.531 135.56L685.406 133.98L685.382 133.834L685.355 133.689L675.531 135.56ZM677.571 153.58L667.597 154.292L670.072 188.946L686.398 158.279L677.571 153.58ZM789.091 146.44L779.206 147.948L779.223 148.063L779.244 148.178L789.091 146.44ZM790.791 171.26L780.795 171.004L780.791 171.132V171.26H790.791ZM790.791 173.98H780.791V204.906L798.898 179.835L790.791 173.98ZM878.851 247.76L869.119 245.464L869.109 245.504L869.1 245.544L878.851 247.76ZM868.651 290.94L858.965 288.456L858.942 288.546L858.921 288.635L868.651 290.94ZM917.611 288.56L924.82 295.491L924.934 295.372L925.044 295.25L917.611 288.56ZM926.451 291.76C924.913 291.76 923.377 291.15 922.282 290.163C921.401 289.368 921.261 288.742 921.406 289.136C921.535 289.484 921.763 290.301 921.945 291.78C922.123 293.224 922.231 295.08 922.231 297.4H942.231C942.231 291.853 941.756 286.506 940.166 282.203C939.349 279.991 938.005 277.411 935.678 275.312C933.138 273.021 929.916 271.76 926.451 271.76V291.76ZM922.231 297.4C922.231 300.481 920.85 305.565 916.454 313.101L933.729 323.179C938.853 314.395 942.231 305.653 942.231 297.4H922.231ZM916.516 312.995C912.34 319.956 906.797 326.546 899.775 332.742L913.008 347.738C921.4 340.334 928.323 332.19 933.666 323.285L916.516 312.995ZM899.79 332.728C893.051 338.651 885.476 343.572 877.027 347.487L885.436 365.633C895.574 360.935 904.772 354.976 912.993 347.752L899.79 332.728ZM877.027 347.487C869.075 351.172 860.653 353.02 851.651 353.02V373.02C863.503 373.02 874.801 370.562 885.436 365.633L877.027 347.487ZM851.651 353.02C843.806 353.02 838.651 350.605 834.957 346.485L820.066 359.835C828.158 368.862 839.097 373.02 851.651 373.02V353.02ZM835.194 346.758C830.888 341.592 829.011 336.336 829.011 330.72H809.011C809.011 341.424 812.801 351.128 819.829 359.562L835.194 346.758ZM829.011 330.72C829.011 323.387 830.205 314.848 832.768 305.024L813.415 299.976C810.538 311.006 809.011 321.28 809.011 330.72H829.011ZM832.768 305.024C835.471 294.66 838.402 283.838 841.561 272.556L822.302 267.164C819.114 278.549 816.152 289.487 813.415 299.976L832.768 305.024ZM841.547 272.607C850.141 242.528 854.936 220.172 855.19 206.465L835.193 206.095C834.994 216.868 830.949 236.899 822.316 267.113L841.547 272.607ZM855.191 206.28C855.191 200.475 854.48 194.676 852.096 189.908L834.207 198.852C834.543 199.524 835.191 201.658 835.191 206.28H855.191ZM852.231 190.189C850.75 186.981 848.381 184.215 845.097 182.359C841.921 180.564 838.499 179.96 835.331 179.96V199.96C836.017 199.96 835.825 200.092 835.256 199.771C834.97 199.609 834.691 199.388 834.455 199.125C834.225 198.869 834.112 198.657 834.072 198.571L852.231 190.189ZM835.331 179.96C824.439 179.96 814.72 186.42 806.301 195.334L820.842 209.066C827.836 201.66 832.623 199.96 835.331 199.96V179.96ZM806.301 195.334C797.844 204.288 790.103 215.493 782.997 228.758L800.626 238.202C807.12 226.081 813.885 216.432 820.842 209.066L806.301 195.334ZM783.009 228.735C766.775 258.851 757.963 288.686 756.997 318.152L776.986 318.808C777.833 292.968 785.568 266.136 800.614 238.225L783.009 228.735ZM757.092 319.894C757.545 323.068 757.999 326.241 758.452 329.414L778.251 326.586C777.798 323.412 777.344 320.239 776.891 317.066L757.092 319.894ZM758.452 329.414C758.83 332.063 759.031 334.986 759.031 338.2H779.031C779.031 334.16 778.779 330.284 778.251 326.586L758.452 329.414ZM759.031 338.2C759.031 341.657 757.447 345.771 751.703 350.617L764.6 365.903C773.363 358.509 779.031 349.25 779.031 338.2H759.031ZM751.725 350.598C746.426 355.043 740.747 357.1 734.351 357.1V377.1C745.636 377.1 755.823 373.264 764.578 365.922L751.725 350.598ZM734.351 357.1C733.403 357.1 733.08 356.896 732.984 356.834C732.849 356.747 732.355 356.386 731.736 355.148L713.847 364.092C715.721 367.841 718.4 371.219 722.119 373.626C725.876 376.057 730.087 377.1 734.351 377.1V357.1ZM731.813 355.305C730.124 351.775 729.051 346.99 729.051 340.58H709.051C709.051 349.13 710.472 357.038 713.77 363.935L731.813 355.305ZM729.051 340.58C729.051 334.38 730.498 325.155 733.822 312.525L714.481 307.435C711.004 320.645 709.051 331.82 709.051 340.58H729.051ZM733.822 312.525C737.206 299.666 740.931 286.007 744.998 271.547L725.745 266.133C721.652 280.687 717.897 294.454 714.481 307.435L733.822 312.525ZM744.991 271.572C755.906 233.142 761.787 203.503 762.031 183.28L742.032 183.04C741.822 200.443 736.597 227.924 725.752 266.108L744.991 271.572ZM762.031 183.16C762.031 172.958 760.725 163.847 757.382 156.553L739.201 164.887C740.844 168.473 742.031 174.322 742.031 183.16H762.031ZM757.522 156.874C755.666 152.419 752.644 148.61 748.336 146.025C744.13 143.501 739.394 142.56 734.691 142.56V162.56C736.788 162.56 737.719 162.979 738.046 163.175C738.272 163.31 738.65 163.581 739.061 164.566L757.522 156.874ZM734.691 142.56C717.341 142.56 702.605 154.865 690.074 173.07L706.549 184.41C718.045 167.708 727.562 162.56 734.691 162.56V142.56ZM690.074 173.07C677.07 191.962 665.951 220.387 656.331 257.49L675.691 262.51C685.112 226.173 695.526 200.424 706.549 184.41L690.074 173.07ZM656.338 257.466C653.808 267.124 651.827 275.619 650.414 282.92L670.049 286.72C671.356 279.968 673.228 271.916 675.685 262.534L656.338 257.466ZM650.245 284.294L649.905 290.754L669.878 291.806L670.218 285.346L650.245 284.294ZM650.098 293.303C654.457 314.41 656.351 326.952 656.351 332.08H676.351C676.351 324.514 673.939 309.856 669.685 289.257L650.098 293.303ZM656.351 332.08C656.351 342.644 652.895 347.238 648.027 349.612L656.796 367.588C670.514 360.896 676.351 347.809 676.351 332.08H656.351ZM648.131 349.563C643.892 351.57 639.772 353.463 635.77 355.242L643.893 373.518C648.051 371.67 652.318 369.71 656.692 367.637L648.131 349.563ZM635.573 355.332C633.137 356.478 630.41 357.1 627.251 357.1V377.1C633.16 377.1 638.819 375.908 644.089 373.428L635.573 355.332ZM627.251 357.1C626.066 357.1 625.493 356.841 625.164 356.633C624.798 356.401 624.123 355.835 623.351 354.368C621.651 351.137 620.251 345.015 620.251 334.8H600.251C600.251 346.118 601.686 356.146 605.652 363.682C607.713 367.599 610.58 371.07 614.463 373.529C618.385 376.013 622.77 377.1 627.251 377.1V357.1ZM620.251 334.8C620.251 314.138 626.053 272.672 638.094 209.513L618.448 205.767C606.463 268.634 600.251 311.942 600.251 334.8H620.251ZM638.096 209.507C640.253 198.151 641.883 189.236 642.976 182.793C643.521 179.576 643.943 176.919 644.231 174.854C644.488 173.019 644.731 171.043 644.731 169.56H624.731C624.731 169.437 624.706 170.068 624.424 172.086C624.174 173.875 623.788 176.317 623.257 179.447C622.197 185.698 620.596 194.463 618.447 205.773L638.096 209.507ZM644.731 169.56C644.731 159.86 643.557 151.084 640.169 144.389C638.402 140.898 635.891 137.695 632.39 135.39C628.833 133.047 624.84 132.02 620.791 132.02V152.02C621.125 152.02 621.293 152.06 621.342 152.074C621.384 152.086 621.387 152.091 621.39 152.093C621.398 152.098 621.487 152.156 621.643 152.341C621.804 152.532 622.045 152.869 622.324 153.421C623.582 155.906 624.731 160.9 624.731 169.56H644.731ZM620.791 132.02C615.582 132.02 610.715 133.546 606.404 136.419L617.498 153.061C618.628 152.307 619.655 152.02 620.791 152.02V132.02ZM606.07 136.653C603.533 138.498 600.887 140.454 598.131 142.52L610.131 158.52C612.816 156.506 615.383 154.609 617.833 152.827L606.07 136.653ZM597.799 142.78C595.562 144.611 593.217 146.344 590.764 147.979L601.858 164.62C604.846 162.629 607.715 160.509 610.464 158.26L597.799 142.78ZM590.764 147.979C589.864 148.58 588.668 149.02 586.791 149.02V169.02C592.168 169.02 597.318 167.647 601.858 164.62L590.764 147.979ZM586.791 149.02C587.489 149.02 588.576 149.194 589.705 149.871C590.819 150.54 591.433 151.374 591.708 151.869C591.951 152.306 591.92 152.451 591.843 152.035C591.77 151.64 591.691 150.936 591.691 149.84H571.691C571.691 153.498 572.143 157.834 574.225 161.581C575.35 163.606 577.026 165.588 579.415 167.021C581.819 168.464 584.394 169.02 586.791 169.02V149.02ZM591.691 149.84C591.691 141.121 595.453 133.824 604.69 127.485L593.373 110.995C579.49 120.522 571.691 133.626 571.691 149.84H591.691ZM604.952 127.299C614.091 120.585 625.42 117 639.491 117V97C621.83 97 606.185 101.575 593.111 111.181L604.952 127.299ZM639.491 117C648.183 117 653.859 119.02 657.591 121.977C661.26 124.885 664.221 129.627 665.708 137.431L685.355 133.689C683.215 122.453 678.356 112.915 670.012 106.303C661.731 99.7399 651.2 97 639.491 97V117ZM665.657 137.14C666.513 142.49 667.162 148.205 667.597 154.292L687.546 152.868C687.074 146.261 686.363 139.963 685.406 133.98L665.657 137.14ZM686.398 158.279C702.212 128.575 720.637 116.32 741.151 116.32V96.32C710.439 96.32 686.477 115.571 668.744 148.881L686.398 158.279ZM741.151 116.32C753.542 116.32 761.967 119.281 767.629 124.019C773.25 128.723 777.421 136.247 779.206 147.948L798.977 144.932C796.682 129.887 790.823 117.35 780.464 108.681C770.146 100.046 756.64 96.32 741.151 96.32V116.32ZM779.244 148.178C780.474 155.148 781.006 162.747 780.795 171.004L800.788 171.516C801.03 162.093 800.429 153.145 798.939 144.702L779.244 148.178ZM780.791 171.26V173.98H800.791V171.26H780.791ZM798.898 179.835C812.271 161.318 826.984 153.38 843.151 153.38V133.38C818.972 133.38 798.778 145.842 782.685 168.125L798.898 179.835ZM843.151 153.38C855.345 153.38 862.846 156.967 867.583 162.682C872.618 168.756 875.991 178.966 875.991 195.06H895.991C895.991 176.701 892.225 161.071 882.98 149.918C873.437 138.406 859.518 133.38 843.151 133.38V153.38ZM875.991 195.06C875.991 209.015 873.764 225.777 869.119 245.464L888.584 250.056C893.459 229.396 895.991 211.025 895.991 195.06H875.991ZM869.1 245.544C864.569 265.483 861.195 279.76 858.965 288.456L878.338 293.424C880.642 284.44 884.068 269.931 888.603 249.976L869.1 245.544ZM858.921 288.635C856.827 297.477 855.591 305.064 855.591 311H875.591C875.591 307.416 876.396 301.63 878.382 293.245L858.921 288.635ZM855.591 311C855.591 316.136 856.413 321.755 859.548 326.337C863.15 331.601 868.681 333.92 874.431 333.92V313.92C874.178 313.92 874.44 313.877 874.944 314.123C875.494 314.391 875.874 314.779 876.055 315.043C876.19 315.241 876.055 315.136 875.894 314.429C875.733 313.723 875.591 312.615 875.591 311H855.591ZM874.431 333.92C878.692 333.92 882.647 332.051 885.555 330.381C888.784 328.525 892.34 325.938 896.152 322.817C903.801 316.553 913.384 307.384 924.82 295.491L910.403 281.629C899.172 293.309 890.225 301.82 883.481 307.343C880.096 310.115 877.489 311.948 875.591 313.039C873.37 314.315 873.231 313.92 874.431 313.92V333.92ZM925.044 295.25C926.9 293.188 928.194 291.99 928.979 291.386C929.365 291.089 929.42 291.099 929.178 291.214C928.993 291.302 928.003 291.76 926.451 291.76V271.76C921.982 271.76 918.485 274.226 916.784 275.534C914.622 277.197 912.403 279.399 910.178 281.87L925.044 295.25ZM1123.03 318.14L1131.6 323.285L1131.64 323.232L1131.67 323.179L1123.03 318.14ZM1104.33 340.24L1110.93 347.752L1110.94 347.745L1110.95 347.738L1104.33 340.24ZM1079.17 356.56L1074.97 347.487L1079.17 356.56ZM1027.83 331.4L1037.65 329.5L1032.71 303.999L1019.27 326.226L1027.83 331.4ZM1004.71 355.54L1010.12 363.952L1010.19 363.907L1010.26 363.861L1004.71 355.54ZM927.87 349.76L920.718 356.749L927.87 349.76ZM913.59 313.38L923.589 313.539L923.59 313.459V313.38H913.59ZM952.01 222.26L945.515 214.656L945.486 214.681L945.458 214.705L952.01 222.26ZM982.27 203.9L979.313 194.347L979.28 194.357L979.247 194.368L982.27 203.9ZM1037.69 204.92L1032.86 213.676L1042.1 218.777L1046.7 209.267L1037.69 204.92ZM1071.01 205.6L1063.94 212.671L1064.05 212.785L1064.17 212.895L1071.01 205.6ZM1081.89 224.98L1091.1 228.885L1091.89 227.013V224.98H1081.89ZM1067.95 251.84L1059.33 246.778L1058.41 248.341L1058.1 250.127L1067.95 251.84ZM1115.21 288.56L1122.42 295.491L1122.53 295.372L1122.64 295.25L1115.21 288.56ZM982.95 328.34V338.34H983.032L983.114 338.339L982.95 328.34ZM1017.29 306.24L1008.85 300.871L1008.83 300.906L1008.81 300.94L1017.29 306.24ZM1025.11 287.88L1034.74 290.587L1035.11 289.259V287.88H1025.11ZM1031.91 222.6L1041.61 225.025L1045.43 209.735L1029.97 212.79L1031.91 222.6ZM983.97 249.12L976.784 242.166L983.97 249.12ZM1124.05 291.76C1122.73 291.76 1121.32 291.265 1120.24 290.35C1119.36 289.595 1119.2 288.976 1119.33 289.314C1119.45 289.624 1119.68 290.401 1119.87 291.851C1120.06 293.266 1120.17 295.097 1120.17 297.4H1140.17C1140.17 291.826 1139.67 286.403 1137.95 282.026C1137.06 279.758 1135.63 277.183 1133.21 275.125C1130.61 272.907 1127.41 271.76 1124.05 271.76V291.76ZM1120.17 297.4C1120.17 300.481 1118.79 305.565 1114.39 313.101L1131.67 323.179C1136.79 314.395 1140.17 305.653 1140.17 297.4H1120.17ZM1114.45 312.995C1110.28 319.956 1104.73 326.546 1097.71 332.742L1110.95 347.738C1119.34 340.334 1126.26 332.19 1131.6 323.285L1114.45 312.995ZM1097.73 332.728C1090.99 338.651 1083.41 343.572 1074.97 347.487L1083.37 365.633C1093.51 360.935 1102.71 354.976 1110.93 347.752L1097.73 332.728ZM1074.97 347.487C1066.78 351.279 1059.14 353.02 1051.97 353.02V373.02C1062.48 373.02 1072.97 370.454 1083.37 365.633L1074.97 347.487ZM1051.97 353.02C1049.43 353.02 1047.23 352.135 1044.87 349.047C1042.19 345.535 1039.56 339.357 1037.65 329.5L1018.01 333.3C1020.18 344.523 1023.61 354.155 1028.98 361.183C1034.67 368.635 1042.49 373.02 1051.97 373.02V353.02ZM1019.27 326.226C1014.14 334.709 1007.47 341.684 999.163 347.219L1010.26 363.861C1020.99 356.703 1029.73 347.584 1036.39 336.574L1019.27 326.226ZM999.302 347.128C991.941 351.861 981.238 354.72 966.29 354.72V374.72C983.529 374.72 998.439 371.459 1010.12 363.952L999.302 347.128ZM966.29 354.72C952.71 354.72 942.621 350.547 935.022 342.771L920.718 356.749C932.612 368.92 948.136 374.72 966.29 374.72V354.72ZM935.022 342.771C927.189 334.756 923.403 325.224 923.589 313.539L903.591 313.221C903.323 330.096 909.057 344.817 920.718 356.749L935.022 342.771ZM923.59 313.38C923.59 277.305 935.451 249.858 958.562 229.815L945.458 214.705C917.342 239.089 903.59 272.389 903.59 313.38H923.59ZM958.505 229.864C968.802 221.068 977.724 215.832 985.292 213.432L979.247 194.368C968.229 197.861 956.977 204.866 945.515 214.656L958.505 229.864ZM985.227 213.453C993.746 210.816 1002.72 209.48 1012.19 209.48V189.48C1000.81 189.48 989.834 191.091 979.313 194.347L985.227 213.453ZM1012.19 209.48C1021.55 209.48 1028.23 211.121 1032.86 213.676L1042.52 196.164C1034 191.465 1023.68 189.48 1012.19 189.48V209.48ZM1046.7 209.267C1047.97 206.624 1048.99 205.399 1049.51 204.935C1049.72 204.738 1049.73 204.782 1049.52 204.875C1049.27 204.978 1048.93 205.06 1048.57 205.06V185.06C1038.29 185.06 1032.16 193.37 1028.68 200.573L1046.7 209.267ZM1048.57 205.06C1053.22 205.06 1058.29 207.02 1063.94 212.671L1078.08 198.529C1069.68 190.127 1059.79 185.06 1048.57 185.06V205.06ZM1064.17 212.895C1070.62 218.945 1071.89 222.937 1071.89 224.98H1091.89C1091.89 214.783 1085.9 205.855 1077.85 198.305L1064.17 212.895ZM1072.68 221.074C1069.74 228.016 1065.32 236.563 1059.33 246.778L1076.57 256.902C1082.82 246.264 1087.69 236.904 1091.1 228.885L1072.68 221.074ZM1058.1 250.127C1056.14 261.393 1055.23 276.681 1055.23 295.7H1075.23C1075.23 277.092 1076.13 263.14 1077.8 253.553L1058.1 250.127ZM1055.23 295.7C1055.23 305.314 1055.82 313.377 1057.32 319.318C1058.06 322.239 1059.22 325.486 1061.28 328.202C1063.56 331.204 1067.3 333.92 1072.37 333.92V313.92C1075.06 313.92 1076.72 315.46 1077.21 316.11C1077.49 316.475 1077.16 316.194 1076.71 314.412C1075.83 310.946 1075.23 304.899 1075.23 295.7H1055.23ZM1072.37 333.92C1076.64 333.92 1080.59 331.991 1083.41 330.344C1086.58 328.49 1090.09 325.908 1093.87 322.792C1101.44 316.538 1110.99 307.379 1122.42 295.491L1108 281.629C1096.77 293.314 1087.84 301.835 1081.13 307.368C1077.77 310.145 1075.19 311.983 1073.32 313.076C1071.09 314.375 1071.05 313.92 1072.37 313.92V333.92ZM1122.64 295.25C1124.5 293.188 1125.79 291.99 1126.58 291.386C1126.96 291.089 1127.02 291.099 1126.78 291.214C1126.59 291.302 1125.6 291.76 1124.05 291.76V271.76C1119.58 271.76 1116.08 274.226 1114.38 275.534C1112.22 277.197 1110 279.399 1107.78 281.87L1122.64 295.25ZM953.57 302.16C953.57 311.828 955.307 320.896 960.377 327.745C965.864 335.157 974 338.34 982.95 338.34V318.34C978.979 318.34 977.425 317.16 976.452 315.845C975.062 313.968 973.57 309.945 973.57 302.16H953.57ZM983.114 338.339C1001.16 338.043 1015.39 328.142 1025.77 311.54L1008.81 300.94C1001.05 313.352 992.397 318.184 982.786 318.341L983.114 338.339ZM1025.73 311.609C1029.55 305.608 1032.5 298.536 1034.74 290.587L1015.48 285.173C1013.64 291.73 1011.38 296.899 1008.85 300.871L1025.73 311.609ZM1035.11 287.88C1035.11 263.041 1037.33 242.14 1041.61 225.025L1022.21 220.175C1017.42 239.326 1015.11 261.946 1015.11 287.88H1035.11ZM1029.97 212.79C1009.52 216.83 991.734 226.718 976.784 242.166L991.156 256.074C1003.41 243.416 1017.58 235.624 1033.85 232.41L1029.97 212.79ZM976.784 242.166C961.209 258.259 953.57 278.513 953.57 302.16H973.57C973.57 283.194 979.53 268.087 991.156 256.074L976.784 242.166ZM1128.14 343.64L1118.88 347.413L1118.97 347.624L1119.06 347.831L1128.14 343.64ZM1122.7 322.56L1112.8 323.936L1112.8 323.955L1112.8 323.974L1122.7 322.56ZM1129.16 229.74L1138.93 231.89L1141.6 219.74H1129.16V229.74ZM1111.14 213.08L1101.6 210.097L1101.53 210.299L1101.48 210.503L1111.14 213.08ZM1118.62 200.84V190.84H1114L1111 194.364L1118.62 200.84ZM1136.98 200.5L1137.6 210.481L1144.48 210.051L1146.53 203.476L1136.98 200.5ZM1170.3 148.14L1170.55 138.143L1170.43 138.14H1170.3V148.14ZM1189.34 165.48L1198.96 162.733L1198.91 162.582L1198.86 162.432L1189.34 165.48ZM1192.4 175.68L1201.09 180.628L1203.24 176.849L1201.95 172.697L1192.4 175.68ZM1178.46 200.16L1169.77 195.212L1161.53 209.68L1178.17 210.156L1178.46 200.16ZM1215.18 202.2L1205.48 204.625L1205.9 206.306L1206.86 207.747L1215.18 202.2ZM1212.8 220.9L1203.31 217.738L1203.26 217.898L1203.21 218.059L1212.8 220.9ZM1206.34 229.74L1207.25 219.781L1207.04 219.763L1206.84 219.752L1206.34 229.74ZM1172.34 228.04L1172.84 218.052L1163.99 217.61L1162.49 226.344L1172.34 228.04ZM1196.48 313.38L1201.75 321.879L1201.81 321.841L1201.87 321.803L1196.48 313.38ZM1220.96 292.64L1212.99 286.596L1220.96 292.64ZM1229.8 318.14L1238.05 323.795L1238.08 323.741L1238.12 323.687L1229.8 318.14ZM1209.06 340.24L1215.33 348.028L1215.35 348.018L1215.36 348.008L1209.06 340.24ZM1181.52 356.56L1177.63 347.348L1177.59 347.363L1177.56 347.379L1181.52 356.56ZM1138 357.92L1131.15 365.202L1131.37 365.409L1131.6 365.602L1138 357.92ZM1137.4 339.867C1135.27 334.644 1133.64 328.435 1132.6 321.146L1112.8 323.974C1114.03 332.552 1116.02 340.396 1118.88 347.413L1137.4 339.867ZM1132.61 321.184C1131.57 313.698 1131 302.896 1131 288.56H1111C1111 303.237 1111.57 315.102 1112.8 323.936L1132.61 321.184ZM1131 288.56C1131 275.118 1133.55 256.329 1138.93 231.89L1119.39 227.59C1113.9 252.564 1111 272.988 1111 288.56H1131ZM1129.16 219.74H1113.86V239.74H1129.16V219.74ZM1113.86 219.74C1113.86 219.74 1113.94 219.74 1114.09 219.757C1114.23 219.774 1114.46 219.811 1114.75 219.892C1115.34 220.057 1116.26 220.423 1117.2 221.208C1119.41 223.05 1119.78 225.404 1119.78 226.34H1099.78C1099.78 229.543 1100.83 233.597 1104.4 236.572C1107.62 239.256 1111.36 239.74 1113.86 239.74V219.74ZM1119.78 226.34C1119.78 221.352 1120.21 217.89 1120.8 215.657L1101.48 210.503C1100.26 215.07 1099.78 220.448 1099.78 226.34H1119.78ZM1120.69 216.063C1121.26 214.236 1122.82 211.343 1126.24 207.316L1111 194.364C1106.72 199.404 1103.29 204.67 1101.6 210.097L1120.69 216.063ZM1118.62 210.84H1126.78V190.84H1118.62V210.84ZM1126.78 210.84C1130.19 210.84 1133.8 210.718 1137.6 210.481L1136.36 190.519C1132.91 190.735 1129.72 190.84 1126.78 190.84V210.84ZM1146.53 203.476C1151.87 186.326 1157.06 174.22 1161.91 166.599C1167.11 158.43 1170.11 158.14 1170.3 158.14V138.14C1159.16 138.14 1150.94 146.577 1145.03 155.861C1138.78 165.694 1132.97 179.767 1127.43 197.524L1146.53 203.476ZM1170.05 158.137C1172.33 158.194 1173.84 158.864 1175.13 160.038C1176.6 161.38 1178.34 163.915 1179.82 168.528L1198.86 162.432C1196.71 155.712 1193.47 149.69 1188.59 145.252C1183.54 140.646 1177.34 138.313 1170.55 138.143L1170.05 158.137ZM1179.73 168.227C1180.66 171.49 1181.7 174.969 1182.86 178.663L1201.95 172.697C1200.83 169.137 1199.84 165.817 1198.96 162.733L1179.73 168.227ZM1183.71 170.732L1169.77 195.212L1187.15 205.108L1201.09 180.628L1183.71 170.732ZM1178.17 210.156C1193.99 210.608 1204.13 210.84 1208.38 210.84V190.84C1204.47 190.84 1194.66 190.619 1178.75 190.164L1178.17 210.156ZM1208.38 210.84C1209.29 210.84 1210 210.864 1210.54 210.901C1210.8 210.92 1211.01 210.939 1211.15 210.957C1211.3 210.975 1211.36 210.987 1211.35 210.986C1211.35 210.985 1211.22 210.96 1210.99 210.888C1210.79 210.821 1210.37 210.672 1209.84 210.384C1208.97 209.908 1206.39 208.251 1205.48 204.625L1224.88 199.775C1223.86 195.696 1220.91 193.642 1219.42 192.826C1217.84 191.967 1216.29 191.578 1215.27 191.374C1213.16 190.952 1210.73 190.84 1208.38 190.84V210.84ZM1206.86 207.747C1206.13 206.649 1205.93 205.744 1205.88 205.521C1205.83 205.254 1205.86 205.24 1205.86 205.6H1225.86C1225.86 203.597 1225.68 199.915 1223.5 196.653L1206.86 207.747ZM1205.86 205.6C1205.86 208.167 1205.19 212.117 1203.31 217.738L1222.29 224.062C1224.49 217.443 1225.86 211.193 1225.86 205.6H1205.86ZM1203.21 218.059C1202.85 219.299 1202.51 220.224 1202.22 220.887C1201.92 221.571 1201.74 221.818 1201.75 221.8C1201.77 221.779 1201.87 221.644 1202.07 221.45C1202.27 221.253 1202.61 220.969 1203.09 220.685C1204.17 220.056 1205.63 219.635 1207.25 219.781L1205.44 239.699C1211.63 240.262 1215.79 236.492 1217.9 233.6C1219.98 230.756 1221.36 227.205 1222.39 223.741L1203.21 218.059ZM1206.84 219.752L1172.84 218.052L1171.84 238.028L1205.84 239.728L1206.84 219.752ZM1162.49 226.344C1157.68 254.289 1155.2 277.799 1155.2 296.72H1175.2C1175.2 279.374 1177.49 257.097 1182.2 229.736L1162.49 226.344ZM1155.2 296.72C1155.2 306.029 1155.84 313.967 1157.54 319.883C1158.39 322.824 1159.72 326.074 1162.03 328.751C1164.59 331.724 1168.36 333.92 1173.02 333.92V313.92C1175.07 313.92 1176.56 314.983 1177.17 315.689C1177.53 316.099 1177.22 315.949 1176.77 314.357C1175.86 311.206 1175.2 305.544 1175.2 296.72H1155.2ZM1173.02 333.92C1177.39 333.92 1182.04 332.281 1186.21 330.407C1190.68 328.398 1195.89 325.513 1201.75 321.879L1191.21 304.881C1185.74 308.274 1181.37 310.659 1178.02 312.163C1174.37 313.802 1172.96 313.92 1173.02 313.92V333.92ZM1201.87 321.803C1213.65 314.263 1222.92 306.601 1228.93 298.684L1212.99 286.596C1209.03 291.826 1201.98 297.99 1191.09 304.957L1201.87 321.803ZM1228.93 298.684C1231.18 295.72 1232.88 293.961 1234.03 293.033C1235.36 291.962 1234.97 292.78 1233.2 292.78V272.78C1228.26 272.78 1224.24 275.241 1221.49 277.457C1218.56 279.816 1215.73 282.987 1212.99 286.596L1228.93 298.684ZM1233.2 292.78C1231.79 292.78 1230.25 292.29 1228.99 291.275C1227.9 290.391 1227.54 289.529 1227.52 289.478C1227.5 289.414 1227.63 289.731 1227.76 290.642C1227.88 291.52 1227.96 292.733 1227.96 294.34H1247.96C1247.96 290.1 1247.57 285.627 1246.02 281.862C1245.2 279.885 1243.86 277.577 1241.57 275.73C1239.13 273.751 1236.19 272.78 1233.2 272.78V292.78ZM1227.96 294.34C1227.96 299.597 1226.12 305.63 1221.48 312.593L1238.12 323.687C1244.36 314.33 1247.96 304.496 1247.96 294.34H1227.96ZM1221.55 312.485C1216.72 319.533 1210.49 326.206 1202.76 332.472L1215.36 348.008C1224.4 340.674 1232 332.613 1238.05 323.795L1221.55 312.485ZM1202.79 332.452C1195.39 338.41 1187.02 343.382 1177.63 347.348L1185.41 365.772C1196.42 361.125 1206.41 355.217 1215.33 348.028L1202.79 332.452ZM1177.56 347.379C1168.31 351.37 1160.99 353.02 1155.34 353.02V373.02C1164.65 373.02 1174.78 370.363 1185.48 365.741L1177.56 347.379ZM1155.34 353.02C1149.26 353.02 1146.07 351.631 1144.4 350.238L1131.6 365.602C1138.09 371.009 1146.46 373.02 1155.34 373.02V353.02ZM1144.85 350.638C1142.12 348.064 1139.52 344.435 1137.22 339.449L1119.06 347.831C1122.2 354.632 1126.17 360.523 1131.15 365.202L1144.85 350.638ZM1300.31 324.94L1300.04 334.936L1300.18 334.94H1300.31V324.94ZM1351.65 303.86L1358.12 311.482L1358.13 311.477L1358.14 311.472L1351.65 303.86ZM1366.61 289.58L1374.06 296.248L1374.15 296.153L1374.23 296.056L1366.61 289.58ZM1375.11 313.72L1384.26 317.756L1384.28 317.708L1384.3 317.659L1375.11 313.72ZM1358.11 336.5L1364.97 343.78L1364.97 343.776L1358.11 336.5ZM1222.79 334.8L1213.85 339.272L1222.79 334.8ZM1225.17 266.12L1234.56 269.563L1234.57 269.538L1234.58 269.513L1225.17 266.12ZM1244.89 230.42L1237.24 223.984L1237.19 224.036L1237.15 224.088L1244.89 230.42ZM1273.79 207.3L1278.26 216.244L1278.34 216.207L1278.41 216.169L1273.79 207.3ZM1337.03 207.98L1330.22 215.299L1330.28 215.356L1330.34 215.413L1337.03 207.98ZM1339.75 255.92L1331.89 249.742L1331.87 249.761L1331.86 249.781L1339.75 255.92ZM1321.05 271.56L1325.73 280.398L1325.83 280.345L1325.93 280.289L1321.05 271.56ZM1295.21 282.78L1298.44 292.243L1298.51 292.221L1298.57 292.197L1295.21 282.78ZM1267.67 293.66L1263.57 284.541L1257.67 287.194V293.66H1267.67ZM1267.67 302.16H1257.67V302.299L1257.67 302.438L1267.67 302.16ZM1277.87 319.5L1273.28 328.382L1277.87 319.5ZM1270.05 270.2L1260.18 268.569L1256.43 291.301L1275.6 278.521L1270.05 270.2ZM1283.31 261.7L1278.3 253.046L1278.2 253.105L1278.1 253.167L1283.31 261.7ZM1294.53 254.56L1300.34 262.697L1300.39 262.661L1300.44 262.624L1294.53 254.56ZM1305.07 237.56L1315.06 237.917L1315.07 237.739V237.56H1305.07ZM1300.31 334.94C1320.87 334.94 1340.2 326.708 1358.12 311.482L1345.18 296.238C1330.01 309.119 1315.11 314.94 1300.31 314.94V334.94ZM1358.14 311.472C1364.48 306.07 1369.82 300.992 1374.06 296.248L1359.16 282.912C1355.7 286.781 1351.06 291.223 1345.17 296.248L1358.14 311.472ZM1374.23 296.056C1375.94 294.047 1377.12 292.935 1377.81 292.406C1378.14 292.152 1378.16 292.186 1377.89 292.309C1377.63 292.424 1376.77 292.78 1375.45 292.78V272.78C1371.04 272.78 1367.57 275.046 1365.61 276.554C1363.35 278.292 1361.14 280.579 1358.99 283.104L1374.23 296.056ZM1375.45 292.78C1374.49 292.78 1373.21 292.512 1371.99 291.695C1370.82 290.921 1370.27 290.025 1370.08 289.632C1369.9 289.278 1369.96 289.244 1370.05 289.779C1370.13 290.287 1370.21 291.103 1370.21 292.3H1390.21C1390.21 288.616 1389.8 284.364 1387.96 280.688C1386.98 278.708 1385.43 276.623 1383.08 275.055C1380.67 273.445 1377.99 272.78 1375.45 272.78V292.78ZM1370.21 292.3C1370.21 296.899 1368.97 302.671 1365.92 309.781L1384.3 317.659C1388.05 308.902 1390.21 300.394 1390.21 292.3H1370.21ZM1365.96 309.684C1363.23 315.866 1358.49 322.402 1351.25 329.224L1364.97 343.776C1373.6 335.638 1380.19 326.987 1384.26 317.756L1365.96 309.684ZM1351.25 329.22C1334.08 345.397 1310.04 354.04 1277.87 354.04V374.04C1313.7 374.04 1343.16 364.323 1364.97 343.78L1351.25 329.22ZM1277.87 354.04C1253.6 354.04 1239.35 345.564 1231.73 330.328L1213.85 339.272C1225.72 363.023 1248.19 374.04 1277.87 374.04V354.04ZM1231.73 330.328C1229.35 325.55 1227.69 317.612 1227.69 305.56H1207.69C1207.69 318.895 1209.44 330.45 1213.85 339.272L1231.73 330.328ZM1227.69 305.56C1227.69 294.194 1229.92 282.214 1234.56 269.563L1215.78 262.677C1210.45 277.226 1207.69 291.539 1207.69 305.56H1227.69ZM1234.58 269.513C1239.23 256.605 1245.28 245.733 1252.63 236.752L1237.15 224.088C1228.18 235.053 1221.08 247.981 1215.76 262.727L1234.58 269.513ZM1252.54 236.856C1260.12 227.852 1268.69 221.031 1278.26 216.244L1269.32 198.356C1257.13 204.449 1246.44 213.042 1237.24 223.984L1252.54 236.856ZM1278.41 216.169C1287.87 211.244 1297.84 208.8 1308.47 208.8V188.8C1294.62 188.8 1281.47 192.023 1269.17 198.431L1278.41 216.169ZM1308.47 208.8C1319.4 208.8 1326.11 211.474 1330.22 215.299L1343.84 200.661C1334.81 192.246 1322.48 188.8 1308.47 188.8V208.8ZM1330.34 215.413C1334.88 219.501 1337.23 224.659 1337.23 231.78H1357.23C1357.23 219.408 1352.78 208.699 1343.72 200.547L1330.34 215.413ZM1337.23 231.78C1337.23 239.766 1335.22 245.501 1331.89 249.742L1347.61 262.098C1354.25 253.646 1357.23 243.287 1357.23 231.78H1337.23ZM1331.86 249.781C1328.03 254.708 1322.87 259.087 1316.17 262.831L1325.93 280.289C1334.64 275.42 1341.96 269.372 1347.64 262.059L1331.86 249.781ZM1316.37 262.722C1309.15 266.546 1300.98 270.099 1291.85 273.363L1298.57 292.197C1308.48 288.661 1317.54 284.734 1325.73 280.398L1316.37 262.722ZM1291.98 273.316C1282.39 276.592 1272.92 280.334 1263.57 284.541L1271.77 302.779C1280.56 298.826 1289.45 295.315 1298.44 292.243L1291.98 273.316ZM1257.67 293.66V302.16H1277.67V293.66H1257.67ZM1257.67 302.438C1257.99 313.777 1263.08 323.11 1273.28 328.382L1282.46 310.618C1279.51 309.09 1277.81 306.863 1277.67 301.882L1257.67 302.438ZM1273.28 328.382C1281.36 332.562 1290.35 334.674 1300.04 334.936L1300.58 314.944C1293.5 314.752 1287.53 313.238 1282.46 310.618L1273.28 328.382ZM1294.53 219.06C1283.9 219.06 1276.14 225.552 1270.98 234.231C1265.95 242.674 1262.53 254.401 1260.18 268.569L1279.92 271.831C1282.11 258.573 1285.03 249.73 1288.16 244.459C1291.16 239.425 1293.37 239.06 1294.53 239.06V219.06ZM1275.6 278.521C1280.27 275.406 1284.58 272.646 1288.53 270.233L1278.1 253.167C1273.88 255.741 1269.35 258.647 1264.5 261.879L1275.6 278.521ZM1288.32 270.354C1292.83 267.743 1296.85 265.191 1300.34 262.697L1288.72 246.423C1285.86 248.462 1282.4 250.671 1278.3 253.046L1288.32 270.354ZM1300.44 262.624C1308.84 256.466 1314.69 248.259 1315.06 237.917L1295.08 237.203C1294.99 239.555 1293.82 242.68 1288.62 246.496L1300.44 262.624ZM1315.07 237.56C1315.07 232.547 1313.41 227.189 1308.71 223.401C1304.43 219.944 1299.13 219.06 1294.53 219.06V239.06C1295.65 239.06 1296.28 239.176 1296.55 239.248C1296.79 239.315 1296.57 239.297 1296.16 238.969C1295.96 238.806 1295.75 238.598 1295.57 238.349C1295.38 238.102 1295.25 237.862 1295.17 237.661C1295.01 237.266 1295.07 237.159 1295.07 237.56H1315.07Z" fill="#FFA857" mask="url(#path-2-outside-1_4_6)"/>
</g>
</g>
</svg>
